<svg width="30" height="30" viewBox="0 0 30 30" fill="none" xmlns="http://www.w3.org/2000/svg">
<path d="M15.7008 15.0001L19.8008 10.9001C20.0008 10.7001 20.0008 10.4001 19.8008 10.2001C19.6008 10.0001 19.3008 10.0001 19.1008 10.2001L15.0008 14.3001L10.9008 10.2001C10.7008 10.0001 10.4008 10.0001 10.2008 10.2001C10.0008 10.4001 10.0008 10.7001 10.2008 10.9001L14.3008 15.0001L10.2008 19.1001C10.0008 19.3001 10.0008 19.6001 10.2008 19.8001C10.3008 19.9001 10.4008 19.9001 10.6008 19.9001C10.8008 19.9001 10.9008 19.9001 11.0008 19.8001L15.1008 15.7001L19.2008 19.8001C19.3008 19.9001 19.4008 19.9001 19.6008 19.9001C19.8008 19.9001 19.9008 19.9001 20.0008 19.8001C20.2008 19.6001 20.2008 19.3001 20.0008 19.1001L15.7008 15.0001Z" fill="#ffffff"/>
</svg>
